<svg width="52" height="32" viewBox="0 0 52 32" fill="none" xmlns="http://www.w3.org/2000/svg">
<mask id="path-1-outside-1_361_225" maskUnits="userSpaceOnUse" x="-0.27356" y="-0.679199" width="53" height="33" fill="black">
<rect fill="white" x="-0.27356" y="-0.679199" width="53" height="33"/>
<path d="M11.9686 29.2036C11.7473 29.1776 11.4738 29.1515 11.1483 29.1255C10.8749 29.0994 10.5363 29.0799 10.1327 29.0669C9.74207 29.0539 9.29936 29.0474 8.80457 29.0474C7.84102 29.0474 6.69519 29.0929 5.36707 29.1841C4.03894 29.2752 2.56108 29.451 0.933472 29.7114C1.62358 26.8078 2.09884 23.9627 2.35925 21.1763C2.63269 18.3898 2.76941 15.7075 2.76941 13.1294C2.76941 10.7856 2.67826 8.58512 2.49597 6.52783C2.31368 4.45752 2.07279 2.54997 1.77332 0.805176C3.0754 1.03955 4.24076 1.1958 5.26941 1.27393C6.31108 1.35205 7.20951 1.39111 7.96472 1.39111C8.48556 1.39111 8.94128 1.37809 9.33191 1.35205C9.73556 1.32601 10.0676 1.29997 10.328 1.27393C10.6405 1.23486 10.9074 1.1958 11.1288 1.15674C11.5715 3.70882 12.1249 6.23486 12.7889 8.73486C13.453 11.2218 14.2733 13.7218 15.2499 16.2349C16.0702 13.6958 16.7212 11.1567 17.203 8.61768C17.6848 6.06559 18.0103 3.46143 18.1796 0.805176L18.3358 1.15674L18.1796 0.805176C19.4816 1.03955 20.6665 1.1958 21.7343 1.27393C22.802 1.35205 23.746 1.39111 24.5663 1.39111C25.1132 1.39111 25.5949 1.37809 26.0116 1.35205C26.4283 1.32601 26.7863 1.29997 27.0858 1.27393C27.4244 1.23486 27.7173 1.1958 27.9647 1.15674C27.6913 2.45882 27.483 4.00179 27.3397 5.78564C27.1965 7.55648 27.1249 9.45752 27.1249 11.4888C27.1249 12.9341 27.1639 14.425 27.2421 15.9614C27.3202 17.4849 27.4374 19.0083 27.5936 20.5317C27.7629 22.0422 27.9777 23.533 28.2382 25.0044C28.4986 26.4757 28.8111 27.8755 29.1757 29.2036C28.9152 29.1776 28.6158 29.1515 28.2772 29.1255C27.9777 29.0994 27.6262 29.0799 27.2225 29.0669C26.8189 29.0539 26.3501 29.0474 25.8163 29.0474C24.8007 29.0474 23.6027 29.0929 22.2225 29.1841C20.8553 29.2752 19.358 29.451 17.7303 29.7114C18.0559 29.0604 18.3228 28.2271 18.5311 27.2114C18.7525 26.1958 18.9283 25.1151 19.0585 23.9692C19.2017 22.8234 19.3059 21.6841 19.371 20.5513C19.4491 19.4054 19.5012 18.3833 19.5272 17.4849C19.1496 18.2922 18.785 19.1125 18.4335 19.9458C18.0819 20.7791 17.7173 21.6711 17.3397 22.6216C16.9751 23.5591 16.591 24.5747 16.1874 25.6685C15.7837 26.7622 15.341 27.9797 14.8593 29.3208C14.3645 27.9797 13.9152 26.7622 13.5116 25.6685C13.108 24.5747 12.7238 23.5591 12.3593 22.6216C12.0077 21.6841 11.6561 20.7987 11.3046 19.9653C10.966 19.119 10.6145 18.2791 10.2499 17.4458C10.3671 19.5031 10.5624 21.5343 10.8358 23.5396C11.1093 25.5317 11.4869 27.4198 11.9686 29.2036ZM50.6991 7.03564C50.6991 7.68669 50.5754 8.27913 50.328 8.81299C50.0936 9.33382 49.7616 9.78304 49.3319 10.1606C48.9022 10.5382 48.3944 10.8312 47.8085 11.0396C47.2356 11.2479 46.6106 11.3521 45.9335 11.3521C45.1913 11.3521 44.5533 11.2609 44.0194 11.0786C43.4986 10.8963 43.0559 10.6685 42.6913 10.395C42.3397 10.1086 42.0598 9.79606 41.8514 9.45752C41.6431 9.10596 41.4803 8.76742 41.3632 8.44189C41.259 8.11637 41.1874 7.81689 41.1483 7.54346C41.1223 7.27002 41.1093 7.06169 41.1093 6.91846C41.2655 7.17887 41.4478 7.34814 41.6561 7.42627C41.8645 7.49137 42.0402 7.52393 42.1835 7.52393C42.5481 7.52393 42.802 7.42627 42.9452 7.23096C43.1014 7.03564 43.1796 6.82731 43.1796 6.60596C43.1796 6.46273 43.147 6.31299 43.0819 6.15674C43.0298 6.00049 42.9257 5.85726 42.7694 5.72705C42.6262 5.58382 42.4244 5.46663 42.1639 5.37549C41.9165 5.28434 41.604 5.23877 41.2264 5.23877C40.966 5.23877 40.6991 5.29085 40.4257 5.39502C40.1522 5.48617 39.8983 5.6359 39.6639 5.84424C39.4426 6.03955 39.2603 6.28695 39.1171 6.58643C38.9738 6.8859 38.9022 7.23747 38.9022 7.64111C38.9022 8.03174 38.9803 8.42236 39.1366 8.81299C39.3059 9.19059 39.5272 9.54867 39.8007 9.88721C40.0871 10.2257 40.4191 10.5317 40.7968 10.8052C41.1874 11.0786 41.6106 11.3065 42.0663 11.4888C42.7824 11.7882 43.5181 12.0812 44.2733 12.3677C45.0415 12.6541 45.7837 12.9666 46.4999 13.3052C47.216 13.6437 47.8866 14.0343 48.5116 14.4771C49.1496 14.9067 49.703 15.4211 50.1718 16.02C50.6535 16.619 51.0311 17.3221 51.3046 18.1294C51.591 18.9237 51.7343 19.8547 51.7343 20.9224C51.7343 22.4458 51.4218 23.839 50.7968 25.1021C50.1848 26.3521 49.358 27.4263 48.3163 28.3247C47.2876 29.2101 46.0897 29.8937 44.7225 30.3755C43.3684 30.8703 41.9491 31.1177 40.4647 31.1177C39.1236 31.1177 37.8475 30.9159 36.6366 30.5122C35.4257 30.1216 34.3645 29.5812 33.453 28.8911C32.5415 28.201 31.8124 27.3937 31.2655 26.4692C30.7316 25.5317 30.4647 24.5226 30.4647 23.4419C30.4647 22.6476 30.5949 21.951 30.8553 21.3521C31.1158 20.7531 31.4738 20.2583 31.9296 19.8677C32.3983 19.464 32.9387 19.1646 33.5507 18.9692C34.1757 18.7739 34.8397 18.6763 35.5428 18.6763C36.0897 18.6763 36.6236 18.7349 37.1444 18.8521C37.6783 18.9692 38.1731 19.145 38.6288 19.3794C39.0975 19.6007 39.5142 19.8742 39.8788 20.1997C40.2564 20.5252 40.5559 20.8963 40.7772 21.313C40.5038 21.2349 40.2629 21.1958 40.0546 21.1958C39.703 21.1958 39.4231 21.3 39.2147 21.5083C39.0064 21.7166 38.9022 22.0291 38.9022 22.4458C38.9022 22.6672 38.9543 22.8755 39.0585 23.0708C39.1626 23.2531 39.2928 23.4159 39.4491 23.5591C39.6184 23.7023 39.8072 23.813 40.0155 23.8911C40.2369 23.9692 40.4647 24.0083 40.6991 24.0083C40.9595 24.0083 41.2004 23.9562 41.4218 23.8521C41.6431 23.7349 41.8384 23.5851 42.0077 23.4028C42.177 23.2205 42.3072 23.0187 42.3983 22.7974C42.4895 22.576 42.535 22.3481 42.535 22.1138C42.535 21.658 42.3918 21.1958 42.1053 20.7271C41.8319 20.2583 41.4283 19.8416 40.8944 19.4771C39.8788 18.8521 38.9218 18.3117 38.0233 17.856C37.1249 17.4002 36.2981 16.9705 35.5428 16.5669C34.7876 16.1502 34.104 15.7336 33.4921 15.3169C32.8931 14.9002 32.3788 14.4185 31.9491 13.8716C31.5324 13.3247 31.2134 12.6867 30.9921 11.9575C30.7707 11.2153 30.66 10.3234 30.66 9.28174C30.66 8.03174 30.9009 6.85986 31.3827 5.76611C31.8645 4.67236 32.5611 3.72184 33.4725 2.91455C34.397 2.09424 35.5233 1.44971 36.8514 0.980957C38.1796 0.512207 39.69 0.277832 41.3827 0.277832C43.0884 0.277832 44.5337 0.486165 45.7186 0.902832C46.9035 1.30648 47.8606 1.83382 48.5897 2.48486C49.3319 3.1359 49.8658 3.86507 50.1913 4.67236C50.5298 5.46663 50.6991 6.25439 50.6991 7.03564Z"/>
</mask>
<path d="M11.9686 29.2036C11.7473 29.1776 11.4738 29.1515 11.1483 29.1255C10.8749 29.0994 10.5363 29.0799 10.1327 29.0669C9.74207 29.0539 9.29936 29.0474 8.80457 29.0474C7.84102 29.0474 6.69519 29.0929 5.36707 29.1841C4.03894 29.2752 2.56108 29.451 0.933472 29.7114C1.62358 26.8078 2.09884 23.9627 2.35925 21.1763C2.63269 18.3898 2.76941 15.7075 2.76941 13.1294C2.76941 10.7856 2.67826 8.58512 2.49597 6.52783C2.31368 4.45752 2.07279 2.54997 1.77332 0.805176C3.0754 1.03955 4.24076 1.1958 5.26941 1.27393C6.31108 1.35205 7.20951 1.39111 7.96472 1.39111C8.48556 1.39111 8.94128 1.37809 9.33191 1.35205C9.73556 1.32601 10.0676 1.29997 10.328 1.27393C10.6405 1.23486 10.9074 1.1958 11.1288 1.15674C11.5715 3.70882 12.1249 6.23486 12.7889 8.73486C13.453 11.2218 14.2733 13.7218 15.2499 16.2349C16.0702 13.6958 16.7212 11.1567 17.203 8.61768C17.6848 6.06559 18.0103 3.46143 18.1796 0.805176L18.3358 1.15674L18.1796 0.805176C19.4816 1.03955 20.6665 1.1958 21.7343 1.27393C22.802 1.35205 23.746 1.39111 24.5663 1.39111C25.1132 1.39111 25.5949 1.37809 26.0116 1.35205C26.4283 1.32601 26.7863 1.29997 27.0858 1.27393C27.4244 1.23486 27.7173 1.1958 27.9647 1.15674C27.6913 2.45882 27.483 4.00179 27.3397 5.78564C27.1965 7.55648 27.1249 9.45752 27.1249 11.4888C27.1249 12.9341 27.1639 14.425 27.2421 15.9614C27.3202 17.4849 27.4374 19.0083 27.5936 20.5317C27.7629 22.0422 27.9777 23.533 28.2382 25.0044C28.4986 26.4757 28.8111 27.8755 29.1757 29.2036C28.9152 29.1776 28.6158 29.1515 28.2772 29.1255C27.9777 29.0994 27.6262 29.0799 27.2225 29.0669C26.8189 29.0539 26.3501 29.0474 25.8163 29.0474C24.8007 29.0474 23.6027 29.0929 22.2225 29.1841C20.8553 29.2752 19.358 29.451 17.7303 29.7114C18.0559 29.0604 18.3228 28.2271 18.5311 27.2114C18.7525 26.1958 18.9283 25.1151 19.0585 23.9692C19.2017 22.8234 19.3059 21.6841 19.371 20.5513C19.4491 19.4054 19.5012 18.3833 19.5272 17.4849C19.1496 18.2922 18.785 19.1125 18.4335 19.9458C18.0819 20.7791 17.7173 21.6711 17.3397 22.6216C16.9751 23.5591 16.591 24.5747 16.1874 25.6685C15.7837 26.7622 15.341 27.9797 14.8593 29.3208C14.3645 27.9797 13.9152 26.7622 13.5116 25.6685C13.108 24.5747 12.7238 23.5591 12.3593 22.6216C12.0077 21.6841 11.6561 20.7987 11.3046 19.9653C10.966 19.119 10.6145 18.2791 10.2499 17.4458C10.3671 19.5031 10.5624 21.5343 10.8358 23.5396C11.1093 25.5317 11.4869 27.4198 11.9686 29.2036ZM50.6991 7.03564C50.6991 7.68669 50.5754 8.27913 50.328 8.81299C50.0936 9.33382 49.7616 9.78304 49.3319 10.1606C48.9022 10.5382 48.3944 10.8312 47.8085 11.0396C47.2356 11.2479 46.6106 11.3521 45.9335 11.3521C45.1913 11.3521 44.5533 11.2609 44.0194 11.0786C43.4986 10.8963 43.0559 10.6685 42.6913 10.395C42.3397 10.1086 42.0598 9.79606 41.8514 9.45752C41.6431 9.10596 41.4803 8.76742 41.3632 8.44189C41.259 8.11637 41.1874 7.81689 41.1483 7.54346C41.1223 7.27002 41.1093 7.06169 41.1093 6.91846C41.2655 7.17887 41.4478 7.34814 41.6561 7.42627C41.8645 7.49137 42.0402 7.52393 42.1835 7.52393C42.5481 7.52393 42.802 7.42627 42.9452 7.23096C43.1014 7.03564 43.1796 6.82731 43.1796 6.60596C43.1796 6.46273 43.147 6.31299 43.0819 6.15674C43.0298 6.00049 42.9257 5.85726 42.7694 5.72705C42.6262 5.58382 42.4244 5.46663 42.1639 5.37549C41.9165 5.28434 41.604 5.23877 41.2264 5.23877C40.966 5.23877 40.6991 5.29085 40.4257 5.39502C40.1522 5.48617 39.8983 5.6359 39.6639 5.84424C39.4426 6.03955 39.2603 6.28695 39.1171 6.58643C38.9738 6.8859 38.9022 7.23747 38.9022 7.64111C38.9022 8.03174 38.9803 8.42236 39.1366 8.81299C39.3059 9.19059 39.5272 9.54867 39.8007 9.88721C40.0871 10.2257 40.4191 10.5317 40.7968 10.8052C41.1874 11.0786 41.6106 11.3065 42.0663 11.4888C42.7824 11.7882 43.5181 12.0812 44.2733 12.3677C45.0415 12.6541 45.7837 12.9666 46.4999 13.3052C47.216 13.6437 47.8866 14.0343 48.5116 14.4771C49.1496 14.9067 49.703 15.4211 50.1718 16.02C50.6535 16.619 51.0311 17.3221 51.3046 18.1294C51.591 18.9237 51.7343 19.8547 51.7343 20.9224C51.7343 22.4458 51.4218 23.839 50.7968 25.1021C50.1848 26.3521 49.358 27.4263 48.3163 28.3247C47.2876 29.2101 46.0897 29.8937 44.7225 30.3755C43.3684 30.8703 41.9491 31.1177 40.4647 31.1177C39.1236 31.1177 37.8475 30.9159 36.6366 30.5122C35.4257 30.1216 34.3645 29.5812 33.453 28.8911C32.5415 28.201 31.8124 27.3937 31.2655 26.4692C30.7316 25.5317 30.4647 24.5226 30.4647 23.4419C30.4647 22.6476 30.5949 21.951 30.8553 21.3521C31.1158 20.7531 31.4738 20.2583 31.9296 19.8677C32.3983 19.464 32.9387 19.1646 33.5507 18.9692C34.1757 18.7739 34.8397 18.6763 35.5428 18.6763C36.0897 18.6763 36.6236 18.7349 37.1444 18.8521C37.6783 18.9692 38.1731 19.145 38.6288 19.3794C39.0975 19.6007 39.5142 19.8742 39.8788 20.1997C40.2564 20.5252 40.5559 20.8963 40.7772 21.313C40.5038 21.2349 40.2629 21.1958 40.0546 21.1958C39.703 21.1958 39.4231 21.3 39.2147 21.5083C39.0064 21.7166 38.9022 22.0291 38.9022 22.4458C38.9022 22.6672 38.9543 22.8755 39.0585 23.0708C39.1626 23.2531 39.2928 23.4159 39.4491 23.5591C39.6184 23.7023 39.8072 23.813 40.0155 23.8911C40.2369 23.9692 40.4647 24.0083 40.6991 24.0083C40.9595 24.0083 41.2004 23.9562 41.4218 23.8521C41.6431 23.7349 41.8384 23.5851 42.0077 23.4028C42.177 23.2205 42.3072 23.0187 42.3983 22.7974C42.4895 22.576 42.535 22.3481 42.535 22.1138C42.535 21.658 42.3918 21.1958 42.1053 20.7271C41.8319 20.2583 41.4283 19.8416 40.8944 19.4771C39.8788 18.8521 38.9218 18.3117 38.0233 17.856C37.1249 17.4002 36.2981 16.9705 35.5428 16.5669C34.7876 16.1502 34.104 15.7336 33.4921 15.3169C32.8931 14.9002 32.3788 14.4185 31.9491 13.8716C31.5324 13.3247 31.2134 12.6867 30.9921 11.9575C30.7707 11.2153 30.66 10.3234 30.66 9.28174C30.66 8.03174 30.9009 6.85986 31.3827 5.76611C31.8645 4.67236 32.5611 3.72184 33.4725 2.91455C34.397 2.09424 35.5233 1.44971 36.8514 0.980957C38.1796 0.512207 39.69 0.277832 41.3827 0.277832C43.0884 0.277832 44.5337 0.486165 45.7186 0.902832C46.9035 1.30648 47.8606 1.83382 48.5897 2.48486C49.3319 3.1359 49.8658 3.86507 50.1913 4.67236C50.5298 5.46663 50.6991 6.25439 50.6991 7.03564Z" fill="#FEF0E1"/>
<path d="M11.9686 29.2036L11.9102 29.7002L12.644 29.7865L12.4513 29.0732L11.9686 29.2036ZM11.1483 29.1255L11.1009 29.6233L11.1084 29.6239L11.1483 29.1255ZM10.1327 29.0669L10.116 29.5666L10.1166 29.5666L10.1327 29.0669ZM0.933472 29.7114L0.447022 29.5958L0.274126 30.3233L1.01247 30.2051L0.933472 29.7114ZM2.35925 21.1763L1.86164 21.1274L1.86142 21.1297L2.35925 21.1763ZM2.49597 6.52783L1.9979 6.57169L1.99792 6.57196L2.49597 6.52783ZM1.77332 0.805176L1.86189 0.313084L1.15985 0.186717L1.28052 0.88976L1.77332 0.805176ZM5.26941 1.27393L5.23154 1.77249L5.23201 1.77253L5.26941 1.27393ZM9.33191 1.35205L9.29972 0.853087L9.29865 0.853158L9.33191 1.35205ZM10.328 1.27393L10.3778 1.7716L10.39 1.77006L10.328 1.27393ZM11.1288 1.15674L11.6214 1.07128L11.5357 0.5772L11.0419 0.664347L11.1288 1.15674ZM12.7889 8.73486L12.3057 8.86322L12.3059 8.86385L12.7889 8.73486ZM15.2499 16.2349L14.7838 16.416L15.2933 17.7269L15.7257 16.3886L15.2499 16.2349ZM17.203 8.61768L17.6942 8.71088L17.6943 8.71043L17.203 8.61768ZM18.1796 0.805176L18.6365 0.602107L17.6806 0.773378L18.1796 0.805176ZM18.1796 0.805176L18.2681 0.313084L17.3394 0.145911L17.7227 1.00825L18.1796 0.805176ZM27.0858 1.27393L27.1291 1.77224L27.1431 1.77063L27.0858 1.27393ZM27.9647 1.15674L28.454 1.2595L28.6031 0.549748L27.8867 0.662857L27.9647 1.15674ZM27.3397 5.78564L27.8381 5.82595L27.8381 5.82566L27.3397 5.78564ZM27.2421 15.9614L26.7427 15.9868L26.7427 15.987L27.2421 15.9614ZM27.5936 20.5317L27.0962 20.5828L27.0967 20.5874L27.5936 20.5317ZM29.1757 29.2036L29.1259 29.7011L29.8506 29.7736L29.6578 29.0713L29.1757 29.2036ZM28.2772 29.1255L28.2339 29.6236L28.2389 29.624L28.2772 29.1255ZM22.2225 29.1841L22.1896 28.6852L22.1893 28.6852L22.2225 29.1841ZM17.7303 29.7114L17.2831 29.4878L16.8475 30.359L17.8093 30.2051L17.7303 29.7114ZM18.5311 27.2114L18.0426 27.1049L18.0413 27.111L18.5311 27.2114ZM19.0585 23.9692L18.5623 23.9072L18.5617 23.9128L19.0585 23.9692ZM19.371 20.5513L18.8721 20.5173L18.8718 20.5226L19.371 20.5513ZM19.5272 17.4849L20.027 17.4993L19.0743 17.273L19.5272 17.4849ZM18.4335 19.9458L17.9728 19.7515L18.4335 19.9458ZM17.3397 22.6216L16.875 22.437L16.8737 22.4404L17.3397 22.6216ZM14.8593 29.3208L14.3902 29.4939L14.8655 30.7823L15.3298 29.4898L14.8593 29.3208ZM12.3593 22.6216L11.8911 22.7972L11.8933 22.8028L12.3593 22.6216ZM11.3046 19.9653L10.8402 20.1511L10.8439 20.1597L11.3046 19.9653ZM10.2499 17.4458L10.708 17.2454L9.75069 17.4742L10.2499 17.4458ZM10.8358 23.5396L10.3404 23.6071L10.3405 23.6075L10.8358 23.5396ZM12.027 28.707C11.7974 28.68 11.5173 28.6534 11.1882 28.6271L11.1084 29.6239C11.4303 29.6496 11.6971 29.6751 11.9102 29.7002L12.027 28.707ZM11.1957 28.6277C10.9083 28.6004 10.5585 28.5804 10.1488 28.5672L10.1166 29.5666C10.5141 29.5795 10.8415 29.5985 11.1009 29.6232L11.1957 28.6277ZM10.1493 28.5672C9.75195 28.5539 9.30353 28.5474 8.80457 28.5474V29.5474C9.29518 29.5474 9.73219 29.5538 10.116 29.5666L10.1493 28.5672ZM8.80457 28.5474C7.82623 28.5474 6.6684 28.5936 5.33283 28.6853L5.4013 29.6829C6.72198 29.5923 7.85581 29.5474 8.80457 29.5474V28.5474ZM5.33283 28.6853C3.98669 28.7776 2.49359 28.9554 0.854476 29.2177L1.01247 30.2051C2.62857 29.9466 4.09119 29.7728 5.4013 29.6829L5.33283 28.6853ZM1.41992 29.827C2.11507 26.9021 2.59435 24.034 2.85708 21.2228L1.86142 21.1297C1.60332 23.8915 1.13208 26.7134 0.447022 29.5958L1.41992 29.827ZM2.85686 21.2251C3.13176 18.4238 3.26941 15.7251 3.26941 13.1294H2.26941C2.26941 15.6899 2.13362 18.3558 1.86164 21.1274L2.85686 21.2251ZM3.26941 13.1294C3.26941 10.7728 3.17777 8.55746 2.99402 6.4837L1.99792 6.57196C2.17876 8.61278 2.26941 10.7985 2.26941 13.1294H3.26941ZM2.99404 6.48398C2.81075 4.4023 2.56826 2.48096 2.26611 0.720592L1.28052 0.88976C1.57733 2.61898 1.81661 4.51274 1.9979 6.57169L2.99404 6.48398ZM1.68474 1.29727C2.99919 1.53387 4.18194 1.69277 5.23154 1.77249L5.30727 0.775362C4.29959 0.698828 3.15161 0.545234 1.86189 0.313084L1.68474 1.29727ZM5.23201 1.77253C6.2818 1.85126 7.19334 1.89111 7.96472 1.89111V0.891113C7.22569 0.891113 6.34036 0.852842 5.3068 0.775326L5.23201 1.77253ZM7.96472 1.89111C8.49328 1.89111 8.96055 1.87792 9.36517 1.85094L9.29865 0.853158C8.92201 0.878267 8.47783 0.891113 7.96472 0.891113V1.89111ZM9.3641 1.85101C9.77083 1.82477 10.1093 1.79829 10.3778 1.77144L10.2783 0.776407C10.0259 0.801641 9.70028 0.827245 9.29972 0.853088L9.3641 1.85101ZM10.39 1.77006C10.7078 1.73034 10.9835 1.6901 11.2157 1.64913L11.0419 0.664347C10.8313 0.701505 10.5732 0.739388 10.266 0.777787L10.39 1.77006ZM10.6361 1.2422C11.0813 3.80869 11.6379 6.34905 12.3057 8.86322L13.2722 8.6065C12.6119 6.12068 12.0616 3.60895 11.6214 1.07128L10.6361 1.2422ZM12.3059 8.86385C12.9749 11.3693 13.801 13.8867 14.7838 16.416L15.7159 16.0538C14.7457 13.557 13.9311 11.0744 13.272 8.60587L12.3059 8.86385ZM15.7257 16.3886C16.5522 13.8303 17.2085 11.2711 17.6942 8.71088L16.7118 8.52447C16.234 11.0424 15.5882 13.5613 14.7741 16.0811L15.7257 16.3886ZM17.6943 8.71043C18.18 6.13771 18.508 3.51317 18.6786 0.836974L17.6806 0.773378C17.5126 3.40968 17.1896 5.99348 16.7117 8.52493L17.6943 8.71043ZM17.7227 1.00825L17.8789 1.35981L18.7927 0.953669L18.6365 0.602107L17.7227 1.00825ZM18.7927 0.953669L18.6365 0.602107L17.7227 1.00825L17.8789 1.35981L18.7927 0.953669ZM18.091 1.29727C19.4065 1.53405 20.6091 1.69293 21.6978 1.77259L21.7707 0.775259C20.724 0.698668 19.5568 0.545047 18.2681 0.313084L18.091 1.29727ZM21.6978 1.77259C22.7742 1.85136 23.7308 1.89111 24.5663 1.89111V0.891113C23.7612 0.891113 22.8297 0.852746 21.7707 0.775259L21.6978 1.77259ZM24.5663 1.89111C25.1206 1.89111 25.6131 1.87793 26.0428 1.85108L25.9804 0.853024C25.5767 0.878255 25.1057 0.891113 24.5663 0.891113V1.89111ZM26.0428 1.85108C26.4621 1.82487 26.8244 1.79854 27.1291 1.77205L27.0425 0.775805C26.7483 0.801391 26.3945 0.827147 25.9804 0.853024L26.0428 1.85108ZM27.1431 1.77063C27.4863 1.73103 27.7865 1.69107 28.0427 1.65062L27.8867 0.662857C27.6482 0.700528 27.3624 0.738694 27.0285 0.777221L27.1431 1.77063ZM27.4754 1.05398C27.1964 2.38242 26.9857 3.94737 26.8413 5.74563L27.8381 5.82566C27.9802 4.05621 28.1861 2.53522 28.454 1.2595L27.4754 1.05398ZM26.8413 5.74533C26.6969 7.53131 26.6249 9.44593 26.6249 11.4888H27.6249C27.6249 9.46911 27.6961 7.58164 27.8381 5.82595L26.8413 5.74533ZM26.6249 11.4888C26.6249 12.9431 26.6642 14.4424 26.7427 15.9868L27.7414 15.936C27.6637 14.4075 27.6249 12.9251 27.6249 11.4888H26.6249ZM26.7427 15.987C26.8213 17.519 26.9391 19.0509 27.0962 20.5828L28.091 20.4807C27.9356 18.9657 27.8191 17.4507 27.7414 15.9358L26.7427 15.987ZM27.0967 20.5874C27.2672 22.1082 27.4835 23.6096 27.7458 25.0915L28.7305 24.9173C28.472 23.4565 28.2586 21.9761 28.0905 20.4761L27.0967 20.5874ZM27.7458 25.0915C28.0087 26.5768 28.3245 27.9917 28.6935 29.336L29.6578 29.0713C29.2977 27.7592 28.9885 26.3747 28.7305 24.9173L27.7458 25.0915ZM29.2254 28.7061C28.9603 28.6796 28.6569 28.6532 28.3156 28.627L28.2389 29.624C28.5747 29.6498 28.8702 29.6756 29.1259 29.7011L29.2254 28.7061ZM28.3205 28.6274C28.0095 28.6003 27.6485 28.5804 27.2387 28.5672L27.2064 29.5666C27.6038 29.5795 27.9459 29.5986 28.2339 29.6236L28.3205 28.6274ZM27.2387 28.5672C26.8283 28.5539 26.3539 28.5474 25.8163 28.5474V29.5474C26.3464 29.5474 26.8095 29.5538 27.2064 29.5666L27.2387 28.5672ZM25.8163 28.5474C24.7866 28.5474 23.5771 28.5935 22.1896 28.6852L22.2555 29.683C23.6283 29.5923 24.8148 29.5474 25.8163 29.5474V28.5474ZM22.1893 28.6852C20.8041 28.7775 19.2912 28.9553 17.6514 29.2177L17.8093 30.2051C19.4247 29.9467 20.9066 29.7729 22.2558 29.683L22.1893 28.6852ZM18.1776 29.935C18.5289 29.2324 18.8072 28.3538 19.0209 27.3119L18.0413 27.111C17.8384 28.1003 17.5828 28.8884 17.2831 29.4878L18.1776 29.935ZM19.0197 27.3179C19.245 26.2841 19.4234 25.1865 19.5553 24.0257L18.5617 23.9128C18.4332 25.0436 18.26 26.1075 18.0426 27.105L19.0197 27.3179ZM19.5546 24.0313C19.6992 22.8745 19.8044 21.7241 19.8701 20.58L18.8718 20.5226C18.8073 21.6441 18.7042 22.7723 18.5623 23.9072L19.5546 24.0313ZM19.8698 20.5853C19.9483 19.4346 20.0007 18.4058 20.027 17.4993L19.0274 17.4704C19.0016 18.3608 18.9499 19.3762 18.8721 20.5173L19.8698 20.5853ZM19.0743 17.273C18.694 18.0862 18.3268 18.9123 17.9728 19.7515L18.8942 20.1402C19.2433 19.3126 19.6053 18.4981 19.9801 17.6967L19.0743 17.273ZM17.9728 19.7515C17.6197 20.5884 17.2538 21.4836 16.875 22.437L17.8044 22.8062C18.1809 21.8585 18.5441 20.9699 18.8942 20.1402L17.9728 19.7515ZM16.8737 22.4404C16.5079 23.3809 16.1228 24.3993 15.7183 25.4953L16.6565 25.8416C17.0593 24.7501 17.4423 23.7372 17.8057 22.8028L16.8737 22.4404ZM15.7183 25.4953C15.3141 26.5907 14.8708 27.8095 14.3887 29.1518L15.3298 29.4898C15.8112 28.1498 16.2534 26.9337 16.6565 25.8416L15.7183 25.4953ZM15.3283 29.1477C14.8336 27.8066 14.3843 26.5891 13.9807 25.4953L13.0425 25.8416C13.4462 26.9353 13.8954 28.1527 14.3902 29.4939L15.3283 29.1477ZM13.9807 25.4953C13.5762 24.3993 13.191 23.3809 12.8253 22.4404L11.8933 22.8028C12.2566 23.7372 12.6397 24.7501 13.0425 25.8416L13.9807 25.4953ZM12.8274 22.446C12.4737 21.5029 12.1197 20.6111 11.7652 19.771L10.8439 20.1597C11.1926 20.9862 11.5416 21.8653 11.8911 22.7971L12.8274 22.446ZM11.7688 19.7796C11.4283 18.9284 11.0747 18.0836 10.708 17.2454L9.7918 17.6462C10.1542 18.4747 10.5038 19.3096 10.8403 20.151L11.7688 19.7796ZM9.75069 17.4742C9.86861 19.5444 10.0652 21.5887 10.3404 23.6071L11.3312 23.472C11.0596 21.48 10.8655 19.4618 10.7491 17.4174L9.75069 17.4742ZM10.3405 23.6075C10.6165 25.6189 10.9982 27.5279 11.4859 29.334L12.4513 29.0732C11.9756 27.3116 11.602 25.4445 11.3312 23.4716L10.3405 23.6075ZM50.328 8.81299L49.8743 8.60274L49.872 8.60781L50.328 8.81299ZM47.8085 11.0396L47.641 10.5684L47.6376 10.5697L47.8085 11.0396ZM44.0194 11.0786L43.8542 11.5506L43.8578 11.5518L44.0194 11.0786ZM42.6913 10.395L42.3754 10.7826L42.3832 10.789L42.3913 10.795L42.6913 10.395ZM41.8514 9.45752L41.4212 9.71246L41.4256 9.71957L41.8514 9.45752ZM41.3632 8.44189L40.8869 8.59428L40.8897 8.60282L40.8927 8.61125L41.3632 8.44189ZM41.1483 7.54346L40.6506 7.59086L40.6517 7.60255L40.6533 7.61417L41.1483 7.54346ZM41.1093 6.91846L41.538 6.66121L40.6093 5.1133V6.91846H41.1093ZM41.6561 7.42627L41.4806 7.89443L41.4937 7.89934L41.507 7.90351L41.6561 7.42627ZM42.9452 7.23096L42.5548 6.91861L42.5482 6.92681L42.542 6.93528L42.9452 7.23096ZM43.0819 6.15674L42.6076 6.31485L42.6133 6.33218L42.6204 6.34905L43.0819 6.15674ZM42.7694 5.72705L42.4159 6.0806L42.4319 6.09664L42.4493 6.11116L42.7694 5.72705ZM42.1639 5.37549L41.9911 5.84472L41.9988 5.84742L42.1639 5.37549ZM40.4257 5.39502L40.5838 5.86936L40.5938 5.86602L40.6037 5.86226L40.4257 5.39502ZM39.6639 5.84424L39.9948 6.21916L39.9961 6.21794L39.6639 5.84424ZM39.1366 8.81299L38.6724 8.99868L38.6762 9.00818L38.6803 9.01752L39.1366 8.81299ZM39.8007 9.88721L39.4116 10.2015L39.419 10.2102L39.8007 9.88721ZM40.7968 10.8052L40.5035 11.2102L40.51 11.2148L40.7968 10.8052ZM42.0663 11.4888L42.2592 11.0274L42.252 11.0245L42.0663 11.4888ZM44.2733 12.3677L44.096 12.8352L44.0986 12.8362L44.2733 12.3677ZM48.5116 14.4771L48.2225 14.8852L48.2323 14.8918L48.5116 14.4771ZM50.1718 16.02L49.778 16.3282L49.7821 16.3334L50.1718 16.02ZM51.3046 18.1294L50.8309 18.2898L50.8342 18.299L51.3046 18.1294ZM50.7968 25.1021L50.3486 24.8803L50.3477 24.8822L50.7968 25.1021ZM48.3163 28.3247L48.6425 28.7037L48.6428 28.7033L48.3163 28.3247ZM44.7225 30.3755L44.5563 29.9039L44.5509 29.9059L44.7225 30.3755ZM36.6366 30.5122L36.7947 30.0378L36.7901 30.0364L36.6366 30.5122ZM31.2655 26.4692L30.831 26.7167L30.8352 26.7238L31.2655 26.4692ZM31.9296 19.8677L32.255 20.2473L32.2558 20.2466L31.9296 19.8677ZM33.5507 18.9692L33.4015 18.492L33.3986 18.4929L33.5507 18.9692ZM37.1444 18.8521L37.0347 19.3399L37.0372 19.3404L37.1444 18.8521ZM38.6288 19.3794L38.4001 19.824L38.4076 19.8279L38.4153 19.8315L38.6288 19.3794ZM39.8788 20.1997L39.5457 20.5727L39.5523 20.5784L39.8788 20.1997ZM40.7772 21.313L40.6399 21.7938L41.7704 22.1168L41.2188 21.0784L40.7772 21.313ZM39.0585 23.0708L38.6173 23.3061L38.6207 23.3125L38.6244 23.3189L39.0585 23.0708ZM39.4491 23.5591L39.1112 23.9277L39.1185 23.9344L39.1261 23.9408L39.4491 23.5591ZM40.0155 23.8911L39.8399 24.3594L39.8491 24.3626L40.0155 23.8911ZM41.4218 23.8521L41.6347 24.3045L41.6453 24.2995L41.6557 24.2939L41.4218 23.8521ZM42.1053 20.7271L41.6734 20.979L41.6787 20.9878L42.1053 20.7271ZM40.8944 19.4771L41.1764 19.0642L41.1666 19.0574L41.1565 19.0512L40.8944 19.4771ZM35.5428 16.5669L35.3013 17.0047L35.3072 17.0079L35.5428 16.5669ZM33.4921 15.3169L33.2065 15.7274L33.2107 15.7302L33.4921 15.3169ZM31.9491 13.8716L31.5513 14.1746L31.5559 14.1805L31.9491 13.8716ZM30.9921 11.9575L30.5129 12.1004L30.5136 12.1028L30.9921 11.9575ZM31.3827 5.76611L30.9251 5.56456L31.3827 5.76611ZM33.4725 2.91455L33.8041 3.28885L33.8044 3.28855L33.4725 2.91455ZM45.7186 0.902832L45.5528 1.37454L45.5574 1.37612L45.7186 0.902832ZM48.5897 2.48486L48.2567 2.85785L48.26 2.86074L48.5897 2.48486ZM50.1913 4.67236L49.7275 4.85938L49.7313 4.86841L50.1913 4.67236ZM50.1991 7.03564C50.1991 7.62187 50.0881 8.14151 49.8743 8.60276L50.7817 9.02322C51.0627 8.41676 51.1991 7.7515 51.1991 7.03564H50.1991ZM49.872 8.60781C49.667 9.06339 49.378 9.45454 49.0019 9.78506L49.662 10.5362C50.1452 10.1115 50.5202 9.60425 50.784 9.01817L49.872 8.60781ZM49.0019 9.78506C48.6238 10.1173 48.1724 10.3795 47.641 10.5684L47.976 11.5107C48.6164 11.2829 49.1806 10.9592 49.662 10.5362L49.0019 9.78506ZM47.6376 10.5697C47.1252 10.756 46.5587 10.8521 45.9335 10.8521V11.8521C46.6624 11.8521 47.3459 11.7398 47.9793 11.5094L47.6376 10.5697ZM45.9335 10.8521C45.2299 10.8521 44.6493 10.7654 44.181 10.6054L43.8578 11.5518C44.4572 11.7564 45.1527 11.8521 45.9335 11.8521V10.8521ZM44.1846 10.6067C43.7023 10.4379 43.3073 10.232 42.9913 9.99502L42.3913 10.795C42.8044 11.1049 43.2949 11.3548 43.8542 11.5505L44.1846 10.6067ZM43.0071 10.0074C42.693 9.75143 42.4524 9.48009 42.2773 9.19547L41.4256 9.71957C41.6671 10.112 41.9865 10.4657 42.3754 10.7826L43.0071 10.0074ZM42.2816 9.20262C42.0866 8.8735 41.9384 8.56357 41.8336 8.27253L40.8927 8.61125C41.0223 8.97126 41.1997 9.33842 41.4213 9.71242L42.2816 9.20262ZM41.8394 8.28951C41.7418 7.98465 41.6776 7.71289 41.6433 7.47275L40.6533 7.61417C40.6972 7.9209 40.7762 8.2481 40.8869 8.59428L41.8394 8.28951ZM41.6461 7.49605C41.6204 7.22688 41.6093 7.03745 41.6093 6.91846H40.6093C40.6093 7.08592 40.6241 7.31316 40.6506 7.59086L41.6461 7.49605ZM40.6805 7.1757C40.8739 7.49794 41.1336 7.76433 41.4806 7.89443L41.8317 6.9581C41.762 6.93196 41.6572 6.8598 41.538 6.66121L40.6805 7.1757ZM41.507 7.90351C41.7411 7.97667 41.9705 8.02393 42.1835 8.02393V7.02393C42.11 7.02393 41.9878 7.00608 41.8053 6.94903L41.507 7.90351ZM42.1835 8.02393C42.6237 8.02393 43.0706 7.9055 43.3484 7.52664L42.542 6.93528C42.5334 6.94704 42.4724 7.02393 42.1835 7.02393V8.02393ZM43.3356 7.5433C43.5531 7.2715 43.6796 6.9555 43.6796 6.60596H42.6796C42.6796 6.69912 42.6498 6.79979 42.5548 6.91861L43.3356 7.5433ZM43.6796 6.60596C43.6796 6.38586 43.6294 6.17072 43.5434 5.96443L42.6204 6.34905C42.6646 6.45525 42.6796 6.5396 42.6796 6.60596H43.6796ZM43.5563 5.99862C43.4686 5.73555 43.3004 5.51871 43.0895 5.34294L42.4493 6.11116C42.5509 6.1958 42.5911 6.26543 42.6076 6.31485L43.5563 5.99862ZM43.123 5.3735C42.911 5.16155 42.6361 5.01101 42.3291 4.90356L41.9988 5.84742C42.2126 5.92226 42.3413 6.00609 42.4159 6.0806L43.123 5.3735ZM42.3368 4.90632C42.0157 4.78802 41.6397 4.73877 41.2264 4.73877V5.73877C41.5684 5.73877 41.8174 5.78066 41.9911 5.84466L42.3368 4.90632ZM41.2264 4.73877C40.8981 4.73877 40.571 4.80461 40.2477 4.92778L40.6037 5.86226C40.8272 5.77709 41.0339 5.73877 41.2264 5.73877V4.73877ZM40.2675 4.92068C39.9244 5.03506 39.6123 5.22121 39.3318 5.47053L39.9961 6.21794C40.1844 6.0506 40.38 5.93727 40.5838 5.86936L40.2675 4.92068ZM39.3331 5.46932C39.0555 5.71429 38.8346 6.01815 38.666 6.3707L39.5681 6.80215C39.686 6.55574 39.8297 6.36481 39.9948 6.21916L39.3331 5.46932ZM38.666 6.3707C38.4844 6.75049 38.4022 7.17865 38.4022 7.64111H39.4022C39.4022 7.29629 39.4633 7.02132 39.5681 6.80215L38.666 6.3707ZM38.4022 7.64111C38.4022 8.10011 38.4943 8.55358 38.6724 8.99868L39.6008 8.62729C39.4664 8.29114 39.4022 7.96337 39.4022 7.64111H38.4022ZM38.6803 9.01752C38.8681 9.43639 39.1126 9.83107 39.4117 10.2014L40.1896 9.57304C39.9419 9.26627 39.7436 8.9448 39.5929 8.60846L38.6803 9.01752ZM39.419 10.2102C39.7328 10.5811 40.0949 10.9143 40.5035 11.2101L41.09 10.4002C40.7434 10.1492 40.4414 9.87044 40.1824 9.56424L39.419 10.2102ZM40.51 11.2148C40.933 11.5109 41.3902 11.7569 41.8806 11.953L42.252 11.0245C41.8309 10.8561 41.4417 10.6463 41.0835 10.3956L40.51 11.2148ZM41.8734 11.9501C42.5949 12.2518 43.3358 12.5468 44.096 12.8352L44.4506 11.9002C43.7005 11.6156 42.97 11.3247 42.2592 11.0275L41.8734 11.9501ZM44.0986 12.8362C44.8541 13.1179 45.5832 13.4249 46.2862 13.7572L46.7136 12.8531C45.9842 12.5084 45.229 12.1904 44.448 11.8992L44.0986 12.8362ZM46.2862 13.7572C46.9769 14.0837 47.6222 14.4598 48.2226 14.8851L48.8006 14.069C48.151 13.6089 47.4552 13.2037 46.7136 12.8531L46.2862 13.7572ZM48.2323 14.8918C48.8273 15.2925 49.3419 15.771 49.778 16.3282L50.5655 15.7119C50.0641 15.0711 49.4719 14.521 48.7909 14.0623L48.2323 14.8918ZM49.7821 16.3334C50.2234 16.882 50.5743 17.532 50.831 18.2898L51.7781 17.969C51.4879 17.1122 51.0837 16.356 50.5614 15.7066L49.7821 16.3334ZM50.8342 18.299C51.0966 19.0267 51.2343 19.8979 51.2343 20.9224H52.2343C52.2343 19.8114 52.0854 18.8207 51.7749 17.9598L50.8342 18.299ZM51.2343 20.9224C51.2343 22.3752 50.9368 23.6917 50.3486 24.8803L51.2449 25.3238C51.9067 23.9864 52.2343 22.5164 52.2343 20.9224H51.2343ZM50.3477 24.8822C49.765 26.0723 48.9796 27.0923 47.9897 27.9461L48.6428 28.7033C49.7363 27.7603 50.6045 26.6318 51.2458 25.3219L50.3477 24.8822ZM47.9901 27.9458C47.0117 28.7879 45.8689 29.4414 44.5564 29.9039L44.8887 30.8471C46.3105 30.3461 47.5636 29.6323 48.6425 28.7037L47.9901 27.9458ZM44.5509 29.9059C43.2534 30.38 41.8923 30.6177 40.4647 30.6177V31.6177C42.0059 31.6177 43.4834 31.3606 44.8941 30.8451L44.5509 29.9059ZM40.4647 30.6177C39.1746 30.6177 37.9521 30.4237 36.7947 30.0379L36.4785 30.9865C37.7429 31.408 39.0726 31.6177 40.4647 31.6177V30.6177ZM36.7901 30.0364C35.6266 29.661 34.6168 29.1451 33.7548 28.4925L33.1512 29.2897C34.1122 30.0173 35.2247 30.5821 36.4831 30.9881L36.7901 30.0364ZM33.7548 28.4925C32.8918 27.839 32.2076 27.0797 31.6958 26.2147L30.8352 26.7238C31.4172 27.7077 32.1913 28.563 33.1512 29.2897L33.7548 28.4925ZM31.7 26.2218C31.2092 25.3599 30.9647 24.436 30.9647 23.4419H29.9647C29.9647 24.6092 30.2541 25.7036 30.831 26.7167L31.7 26.2218ZM30.9647 23.4419C30.9647 22.7017 31.0861 22.0754 31.3139 21.5514L30.3968 21.1527C30.1038 21.8266 29.9647 22.5935 29.9647 23.4419H30.9647ZM31.3139 21.5514C31.5468 21.0156 31.8616 20.5845 32.255 20.2473L31.6042 19.488C31.0861 19.9321 30.6847 20.4906 30.3968 21.1527L31.3139 21.5514ZM32.2558 20.2466C32.6717 19.8885 33.1522 19.6212 33.7027 19.4456L33.3986 18.4929C32.7251 18.7079 32.125 19.0396 31.6033 19.4888L32.2558 20.2466ZM33.6998 19.4465C34.2731 19.2673 34.8866 19.1763 35.5428 19.1763V18.1763C34.7929 18.1763 34.0782 18.2805 33.4015 18.492L33.6998 19.4465ZM35.5428 19.1763C36.0537 19.1763 36.5507 19.231 37.0347 19.3399L37.2542 18.3642C36.6964 18.2388 36.1257 18.1763 35.5428 18.1763V19.1763ZM37.0372 19.3404C37.5316 19.449 37.9853 19.6107 38.4001 19.824L38.8575 18.9348C38.3608 18.6793 37.8249 18.4895 37.2516 18.3637L37.0372 19.3404ZM38.4153 19.8315C38.8432 20.0336 39.2191 20.281 39.5458 20.5727L40.2118 19.8267C39.8093 19.4673 39.3518 19.1679 38.8423 18.9273L38.4153 19.8315ZM39.5523 20.5784C39.8856 20.8658 40.145 21.1887 40.3357 21.5476L41.2188 21.0784C40.9667 20.6039 40.6271 20.1847 40.2053 19.821L39.5523 20.5784ZM40.9146 20.8322C40.6115 20.7456 40.3228 20.6958 40.0546 20.6958V21.6958C40.203 21.6958 40.396 21.7241 40.6399 21.7938L40.9146 20.8322ZM40.0546 20.6958C39.5979 20.6958 39.1811 20.8349 38.8612 21.1547L39.5683 21.8619C39.6651 21.7651 39.8081 21.6958 40.0546 21.6958V20.6958ZM38.8612 21.1547C38.526 21.4899 38.4022 21.9521 38.4022 22.4458H39.4022C39.4022 22.1062 39.4868 21.9433 39.5683 21.8619L38.8612 21.1547ZM38.4022 22.4458C38.4022 22.7492 38.4745 23.0384 38.6173 23.3061L39.4996 22.8355C39.4341 22.7126 39.4022 22.5851 39.4022 22.4458H38.4022ZM38.6244 23.3189C38.7544 23.5465 38.9172 23.7498 39.1112 23.9277L39.787 23.1905C39.6685 23.0819 39.5709 22.9597 39.4926 22.8227L38.6244 23.3189ZM39.1261 23.9408C39.3394 24.1212 39.5781 24.2611 39.8399 24.3593L40.1911 23.4229C40.0363 23.3649 39.8974 23.2834 39.7721 23.1774L39.1261 23.9408ZM39.8491 24.3626C40.1238 24.4596 40.4079 24.5083 40.6991 24.5083V23.5083C40.5215 23.5083 40.3499 23.4789 40.1819 23.4196L39.8491 24.3626ZM40.6991 24.5083C41.0283 24.5083 41.3425 24.442 41.6347 24.3045L41.2089 23.3996C41.0583 23.4705 40.8908 23.5083 40.6991 23.5083V24.5083ZM41.6557 24.2939C41.9262 24.1507 42.1664 23.9667 42.3741 23.7431L41.6413 23.0626C41.5104 23.2035 41.36 23.319 41.1878 23.4102L41.6557 24.2939ZM42.3741 23.7431C42.5824 23.5187 42.7459 23.2665 42.8607 22.9877L41.936 22.607C41.8685 22.7709 41.7715 22.9224 41.6413 23.0626L42.3741 23.7431ZM42.8607 22.9877C42.9761 22.7073 43.035 22.4149 43.035 22.1138H42.035C42.035 22.2814 42.0028 22.4447 41.936 22.607L42.8607 22.9877ZM43.035 22.1138C43.035 21.5487 42.8565 20.9974 42.532 20.4663L41.6787 20.9878C41.9271 21.3942 42.035 21.7673 42.035 22.1138H43.035ZM42.5372 20.4751C42.2199 19.9311 41.76 19.4627 41.1764 19.0642L40.6124 19.89C41.0966 20.2206 41.4439 20.5855 41.6735 20.979L42.5372 20.4751ZM41.1565 19.0512C40.1312 18.4203 39.1621 17.873 38.2495 17.41L37.7971 18.3019C38.6814 18.7504 39.6264 19.2838 40.6324 19.9029L41.1565 19.0512ZM38.2495 17.41C37.3537 16.9557 36.5301 16.5276 35.7785 16.1259L35.3072 17.0079C36.066 17.4135 36.896 17.8448 37.7971 18.3019L38.2495 17.41ZM35.7844 16.1291C35.0407 15.7188 34.3706 15.3102 33.7735 14.9036L33.2107 15.7302C33.8374 16.1569 34.5346 16.5817 35.3013 17.0047L35.7844 16.1291ZM33.7776 14.9064C33.2173 14.5167 32.7398 14.0687 32.3423 13.5627L31.5559 14.1805C32.0177 14.7682 32.5689 15.2838 33.2065 15.7273L33.7776 14.9064ZM32.3468 13.5686C31.9699 13.0739 31.6764 12.4906 31.4705 11.8123L30.5136 12.1028C30.7504 12.8828 31.0949 13.5755 31.5514 14.1746L32.3468 13.5686ZM31.4712 11.8146C31.2675 11.1316 31.16 10.2905 31.16 9.28174H30.16C30.16 10.3563 30.2739 11.299 30.5129 12.1004L31.4712 11.8146ZM31.16 9.28174C31.16 8.09789 31.3878 6.99499 31.8403 5.96767L30.9251 5.56456C30.4141 6.72473 30.16 7.96559 30.16 9.28174H31.16ZM31.8403 5.96767C32.2924 4.94118 32.9455 4.04925 33.8041 3.28884L33.141 2.54026C32.1766 3.39444 31.4365 4.40355 30.9251 5.56456L31.8403 5.96767ZM33.8044 3.28855C34.6743 2.51668 35.7422 1.90268 37.0179 1.45245L36.685 0.509462C35.3044 0.996737 34.1198 1.67179 33.1407 2.54056L33.8044 3.28855ZM37.0179 1.45245C38.283 1.00594 39.7356 0.777832 41.3827 0.777832V-0.222168C39.6444 -0.222168 38.0762 0.0184735 36.685 0.509462L37.0179 1.45245ZM41.3827 0.777832C43.0508 0.777832 44.4364 0.981964 45.5528 1.37452L45.8845 0.431146C44.631 -0.00963305 43.1261 -0.222168 41.3827 -0.222168V0.777832ZM45.5574 1.37612C46.696 1.76398 47.5894 2.26201 48.2567 2.85783L48.9227 2.11189C48.1317 1.40563 47.1111 0.848972 45.8799 0.429541L45.5574 1.37612ZM48.26 2.86074C48.9513 3.46715 49.435 4.13386 49.7276 4.85935L50.655 4.48538C50.2965 3.59629 49.7125 2.80466 48.9194 2.10898L48.26 2.86074ZM49.7313 4.86841C50.0462 5.60724 50.1991 6.32854 50.1991 7.03564H51.1991C51.1991 6.18025 51.0134 5.32602 50.6512 4.47631L49.7313 4.86841Z" fill="#745445" mask="url(#path-1-outside-1_361_225)"/>
</svg>
